<?xml version="1.0" encoding="UTF-8"?>
<svg xmlns="http://www.w3.org/2000/svg" width="256" height="256" viewBox="0 0 256 256">
  <!-- Halftone orgánico con gradiente diagonal: más densidad y tamaño hacia esquina inferior derecha -->
  <rect width="256" height="256" fill="none"/>
  <g fill="#005e2f" fill-opacity="0.22">
    <!-- Generación manual de puntos irregulares en una grilla desplazada con jitter -->
    <!-- Fila A -->
    <circle cx="12" cy="18" r="4"/>
    <circle cx="36" cy="10" r="3.5"/>
    <circle cx="60" cy="20" r="4.2"/>
    <circle cx="88" cy="12" r="5"/>
    <circle cx="116" cy="22" r="4.6"/>
    <circle cx="144" cy="16" r="5.2"/>
    <circle cx="172" cy="24" r="6"/>
    <circle cx="204" cy="14" r="6.8"/>
    <circle cx="232" cy="26" r="7.2"/>

    <!-- Fila B -->
    <circle cx="20" cy="46" r="3.6"/>
    <circle cx="44" cy="36" r="3.8"/>
    <circle cx="68" cy="48" r="4.6"/>
    <circle cx="96" cy="40" r="5.2"/>
    <circle cx="124" cy="52" r="5.8"/>
    <circle cx="152" cy="44" r="6.6"/>
    <circle cx="180" cy="56" r="7.4"/>
    <circle cx="212" cy="46" r="8.0"/>
    <circle cx="240" cy="58" r="8.6"/>

    <!-- Fila C -->
    <circle cx="16" cy="78" r="3.2"/>
    <circle cx="40" cy="68" r="3.9"/>
    <circle cx="64" cy="82" r="4.8"/>
    <circle cx="92" cy="72" r="5.6"/>
    <circle cx="120" cy="86" r="6.4"/>
    <circle cx="148" cy="76" r="7.2"/>
    <circle cx="176" cy="90" r="8.4"/>
    <circle cx="208" cy="80" r="9.2"/>
    <circle cx="236" cy="94" r="10"/>

    <!-- Fila D -->
    <circle cx="24" cy="110" r="3.4"/>
    <circle cx="48" cy="100" r="4.2"/>
    <circle cx="72" cy="116" r="5.2"/>
    <circle cx="100" cy="104" r="6.4"/>
    <circle cx="128" cy="120" r="7.4"/>
    <circle cx="156" cy="108" r="8.6"/>
    <circle cx="184" cy="126" r="9.8"/>
    <circle cx="216" cy="114" r="11.0"/>
    <circle cx="244" cy="132" r="12.0"/>

    <!-- Fila E -->
    <circle cx="18" cy="146" r="3.6"/>
    <circle cx="42" cy="136" r="4.6"/>
    <circle cx="66" cy="154" r="5.8"/>
    <circle cx="94" cy="142" r="7.2"/>
    <circle cx="122" cy="160" r="8.6"/>
    <circle cx="150" cy="148" r="10.0"/>
    <circle cx="178" cy="166" r="11.6"/>
    <circle cx="210" cy="154" r="13.2"/>
    <circle cx="238" cy="172" r="14.6"/>

    <!-- Fila F -->
    <circle cx="26" cy="182" r="3.8"/>
    <circle cx="50" cy="170" r="5.2"/>
    <circle cx="74" cy="190" r="6.8"/>
    <circle cx="102" cy="176" r="8.6"/>
    <circle cx="130" cy="196" r="10.4"/>
    <circle cx="158" cy="182" r="12.2"/>
    <circle cx="186" cy="202" r="14.2"/>
    <circle cx="218" cy="188" r="16.0"/>
    <circle cx="246" cy="208" r="18.0"/>

    <!-- Fila G -->
    <circle cx="20" cy="220" r="4.2"/>
    <circle cx="44" cy="206" r="6.2"/>
    <circle cx="68" cy="228" r="8.4"/>
    <circle cx="96" cy="212" r="10.8"/>
    <circle cx="124" cy="234" r="13.0"/>
    <circle cx="152" cy="218" r="15.2"/>
    <circle cx="180" cy="240" r="17.2"/>
    <circle cx="212" cy="224" r="19.0"/>
    <circle cx="240" cy="246" r="21.0"/>

    <!-- Jitter diagonal para evitar patrón rígido -->
    <circle cx="30" cy="32" r="2.8"/>
    <circle cx="58" cy="54" r="3.2"/>
    <circle cx="86" cy="76" r="3.6"/>
    <circle cx="114" cy="98" r="4.0"/>
    <circle cx="142" cy="120" r="4.6"/>
    <circle cx="170" cy="142" r="5.2"/>
    <circle cx="198" cy="164" r="5.8"/>
    <circle cx="226" cy="186" r="6.4"/>
  </g>
</svg>
