<?xml version="1.0" encoding="UTF-8"?>
<svg xmlns="http://www.w3.org/2000/svg" width="1920" height="1080" viewBox="0 0 1920 1080">
  <!-- Halftone XL (1920x1080): densidad y tamaño creciendo hacia esquina inferior derecha -->
  <rect width="1920" height="1080" fill="none"/>
  <g fill="#005e2f" fill-opacity="0.20">
    <!-- Bloque 1 (superior izquierda) - puntos pequeños y más separados -->
    <circle cx="80" cy="60" r="6"/>
    <circle cx="220" cy="90" r="5"/>
    <circle cx="360" cy="50" r="7"/>
    <circle cx="520" cy="110" r="6"/>
    <circle cx="680" cy="70" r="8"/>
    <circle cx="840" cy="120" r="6"/>
    <circle cx="1000" cy="80" r="7"/>
    <circle cx="1160" cy="130" r="6"/>
    <circle cx="1320" cy="90" r="7"/>
    <circle cx="1480" cy="140" r="8"/>

    <!-- Bloque 2 (fila 2) -->
    <circle cx="120" cy="220" r="6"/>
    <circle cx="260" cy="190" r="7"/>
    <circle cx="420" cy="230" r="8"/>
    <circle cx="580" cy="200" r="9"/>
    <circle cx="740" cy="240" r="8"/>
    <circle cx="900" cy="210" r="9"/>
    <circle cx="1060" cy="250" r="10"/>
    <circle cx="1220" cy="220" r="9"/>
    <circle cx="1380" cy="260" r="10"/>
    <circle cx="1540" cy="230" r="11"/>

    <!-- Bloque 3 (fila 3) -->
    <circle cx="160" cy="360" r="7"/>
    <circle cx="300" cy="330" r="8"/>
    <circle cx="460" cy="380" r="10"/>
    <circle cx="620" cy="340" r="11"/>
    <circle cx="780" cy="400" r="12"/>
    <circle cx="940" cy="360" r="12"/>
    <circle cx="1100" cy="420" r="13"/>
    <circle cx="1260" cy="380" r="14"/>
    <circle cx="1420" cy="440" r="15"/>
    <circle cx="1580" cy="400" r="16"/>

    <!-- Bloque 4 (fila 4) -->
    <circle cx="200" cy="520" r="8"/>
    <circle cx="340" cy="490" r="10"/>
    <circle cx="500" cy="540" r="12"/>
    <circle cx="660" cy="500" r="14"/>
    <circle cx="820" cy="560" r="16"/>
    <circle cx="980" cy="520" r="17"/>
    <circle cx="1140" cy="580" r="18"/>
    <circle cx="1300" cy="540" r="19"/>
    <circle cx="1460" cy="600" r="20"/>
    <circle cx="1620" cy="560" r="21"/>

    <!-- Bloque 5 (fila 5) -->
    <circle cx="240" cy="680" r="9"/>
    <circle cx="380" cy="650" r="12"/>
    <circle cx="540" cy="700" r="15"/>
    <circle cx="700" cy="660" r="18"/>
    <circle cx="860" cy="720" r="21"/>
    <circle cx="1020" cy="680" r="23"/>
    <circle cx="1180" cy="740" r="25"/>
    <circle cx="1340" cy="700" r="27"/>
    <circle cx="1500" cy="760" r="29"/>
    <circle cx="1660" cy="720" r="31"/>

    <!-- Bloque 6 (fila 6) - zona inferior derecha más densa/grande -->
    <circle cx="280" cy="840" r="10"/>
    <circle cx="420" cy="810" r="14"/>
    <circle cx="580" cy="860" r="18"/>
    <circle cx="740" cy="820" r="22"/>
    <circle cx="900" cy="880" r="26"/>
    <circle cx="1060" cy="840" r="30"/>
    <circle cx="1220" cy="900" r="34"/>
    <circle cx="1380" cy="860" r="38"/>
    <circle cx="1540" cy="920" r="42"/>
    <circle cx="1700" cy="880" r="46"/>

    <!-- Jitter diagonal adicional (para evitar patrones rígidos) -->
    <circle cx="360" cy="280" r="6"/>
    <circle cx="540" cy="440" r="8"/>
    <circle cx="720" cy="600" r="10"/>
    <circle cx="900" cy="760" r="12"/>
    <circle cx="1080" cy="920" r="14"/>
    <circle cx="1260" cy="1080" r="16"/>
  </g>
</svg>
