<?xml version="1.0" encoding="UTF-8"?>
<svg xmlns="http://www.w3.org/2000/svg" width="1920" height="1080" viewBox="0 0 1920 1080">
  <!-- Malla de hexágonos con gradiente de densidad hacia inferior derecha -->
  <defs>
    <linearGradient id="fade" x1="0%" y1="0%" x2="100%" y2="100%">
      <stop offset="0%" stop-color="#006b3a" stop-opacity="0.10"/>
      <stop offset="100%" stop-color="#006b3a" stop-opacity="0.22"/>
    </linearGradient>
  </defs>
  <rect width="1920" height="1080" fill="none"/>
  <g stroke="url(#fade)" stroke-width="2" fill="none">
    <!-- Dibujar una malla de hexágonos: tamaño base 60px -->
    <!-- Generación manual de filas para simplicidad -->
    <!-- Fila 1 (y=80) -->
    <path d="M60,80 l30,-52 l60,0 l30,52 l-30,52 l-60,0 Z"/>
    <path d="M210,80 l30,-52 l60,0 l30,52 l-30,52 l-60,0 Z"/>
    <path d="M360,80 l30,-52 l60,0 l30,52 l-30,52 l-60,0 Z"/>
    <path d="M510,80 l30,-52 l60,0 l30,52 l-30,52 l-60,0 Z"/>
    <path d="M660,80 l30,-52 l60,0 l30,52 l-30,52 l-60,0 Z"/>
    <path d="M810,80 l30,-52 l60,0 l30,52 l-30,52 l-60,0 Z"/>
    <path d="M960,80 l30,-52 l60,0 l30,52 l-30,52 l-60,0 Z"/>
    <!-- Fila 2 (y=160, desplazada) -->
    <path d="M135,160 l30,-52 l60,0 l30,52 l-30,52 l-60,0 Z"/>
    <path d="M285,160 l30,-52 l60,0 l30,52 l-30,52 l-60,0 Z"/>
    <path d="M435,160 l30,-52 l60,0 l30,52 l-30,52 l-60,0 Z"/>
    <path d="M585,160 l30,-52 l60,0 l30,52 l-30,52 l-60,0 Z"/>
    <path d="M735,160 l30,-52 l60,0 l30,52 l-30,52 l-60,0 Z"/>
    <path d="M885,160 l30,-52 l60,0 l30,52 l-30,52 l-60,0 Z"/>
    <path d="M1035,160 l30,-52 l60,0 l30,52 l-30,52 l-60,0 Z"/>
    <!-- Replicar por varias filas (acotado por ejemplo) -->
    <path d="M60,240 l30,-52 l60,0 l30,52 l-30,52 l-60,0 Z"/>
    <path d="M210,240 l30,-52 l60,0 l30,52 l-30,52 l-60,0 Z"/>
    <path d="M360,240 l30,-52 l60,0 l30,52 l-30,52 l-60,0 Z"/>
    <path d="M510,240 l30,-52 l60,0 l30,52 l-30,52 l-60,0 Z"/>
    <path d="M660,240 l30,-52 l60,0 l30,52 l-30,52 l-60,0 Z"/>
    <path d="M810,240 l30,-52 l60,0 l30,52 l-30,52 l-60,0 Z"/>
    <path d="M960,240 l30,-52 l60,0 l30,52 l-30,52 l-60,0 Z"/>
    <!-- ...más filas (omitidas por brevedad) ... -->
  </g>
</svg>
