<?xml version="1.0" encoding="UTF-8"?>
<svg xmlns="http://www.w3.org/2000/svg" viewBox="0 0 1200 900">
  <defs>
    <linearGradient id="g" x1="0" y1="0" x2="1" y2="1">
      <stop offset="0" stop-color="#39A900" stop-opacity="0.35"/>
      <stop offset="1" stop-color="#00853F" stop-opacity="0.35"/>
    </linearGradient>
  </defs>
  <rect width="1200" height="900" fill="none"/>
  <g opacity="0.18" stroke="url(#g)" stroke-width="2" fill="none">
    <path d="M80,140 C260,40 420,120 600,80 C770,45 980,120 1120,60"/>
    <path d="M40,320 C200,260 360,340 540,300 C720,260 920,340 1140,280"/>
    <path d="M60,520 C240,440 420,520 610,480 C820,430 980,520 1140,460"/>
    <path d="M100,720 C280,640 460,720 640,680 C820,640 980,720 1120,660"/>
    <polyline points="120,120 240,220 380,160 520,260 660,200 780,300 940,240 1080,320"/>
    <polyline points="120,460 240,560 380,500 520,600 660,540 780,640 940,580 1080,660"/>
  </g>
  <g opacity="0.22" fill="#39A900">
    <circle cx="240" cy="220" r="5"/>
    <circle cx="380" cy="160" r="5"/>
    <circle cx="520" cy="260" r="5"/>
    <circle cx="660" cy="200" r="5"/>
    <circle cx="780" cy="300" r="5"/>
    <circle cx="940" cy="240" r="5"/>
    <circle cx="1080" cy="320" r="5"/>

    <circle cx="240" cy="560" r="5"/>
    <circle cx="380" cy="500" r="5"/>
    <circle cx="520" cy="600" r="5"/>
    <circle cx="660" cy="540" r="5"/>
    <circle cx="780" cy="640" r="5"/>
    <circle cx="940" cy="580" r="5"/>
    <circle cx="1080" cy="660" r="5"/>
  </g>
</svg>
